<svg width="76" height="54" viewBox="0 0 76 54" fill="none" xmlns="http://www.w3.org/2000/svg">
<path d="M26.9997 39.5067H22.0733V41.2474H23.4863L21.3095 46.8858L19.1328 41.2474H20.4312V39.5067H15.352V41.2474H17.1087L20.393 49.6482H22.1879L25.3958 41.2474H26.9615V39.5067H26.9997ZM29.7112 41.5879C30.284 41.0582 30.9332 40.8311 31.7352 40.8311C32.6135 40.8311 33.3391 41.096 33.912 41.6636C34.523 42.2313 34.8667 42.8746 35.0194 43.5557H28.68C28.7946 42.761 29.1383 42.1177 29.7112 41.5879ZM35.325 46.4317C34.523 47.5291 33.4155 48.0967 32.0407 48.0967C31.086 48.0967 30.3222 47.794 29.7112 47.2263C29.1001 46.6587 28.7182 45.9019 28.6037 44.9937H37.0817C37.0435 43.1016 36.4706 41.6636 35.3631 40.6797C34.2557 39.6959 33.0336 39.2418 31.697 39.2418C30.3222 39.2418 29.1001 39.7337 28.0308 40.7176C26.9615 41.7015 26.4269 42.9502 26.4269 44.5018C26.4269 46.1289 26.9615 47.4156 28.069 48.3616C29.1765 49.3076 30.4749 49.7996 32.0025 49.7996C32.9954 49.7996 33.9501 49.5725 34.8667 49.1563C35.7832 48.74 36.5088 48.0967 37.0817 47.2263C36.5088 46.9615 35.8978 46.6966 35.325 46.4317ZM45.2923 46.5452C44.9104 46.9615 44.4522 47.1885 43.8793 47.1885C43.2683 47.1885 42.7718 46.9615 42.39 46.4695C42.0081 45.9776 41.8171 45.3343 41.8171 44.5774C41.8171 43.7071 42.0081 43.0259 42.39 42.6097C42.7718 42.1556 43.2683 41.9285 43.8793 41.9285C44.4904 41.9285 44.9486 42.1556 45.3305 42.5718C45.7124 42.9881 45.8652 43.6692 45.8652 44.5396C45.8652 45.4478 45.6742 46.1289 45.2923 46.5452ZM44.8341 39.3553C43.7266 39.3553 42.7336 39.8094 41.8553 40.7554V39.5067H37.2344V41.815H38.6474V51.6917H36.9671V54H43.8793V51.6917H41.8553V48.4751C42.7336 49.3076 43.7266 49.7239 44.7959 49.7239C46.0943 49.7239 47.1636 49.232 47.9656 48.2859C48.7675 47.302 49.1494 46.0911 49.1494 44.6153C49.1494 43.2151 48.7675 42.0042 48.0037 40.9446C47.24 39.8851 46.1707 39.3553 44.8341 39.3553ZM73.7432 37.8416C73.6669 37.8416 73.4759 37.8416 73.2468 37.8416H73.0176V37.1226H73.2468C73.4759 37.1226 73.6287 37.1226 73.7432 37.1226C73.8196 37.1226 73.896 37.1605 73.9724 37.2362C74.0487 37.3118 74.0488 37.3875 74.0488 37.4632C74.0488 37.5389 74.0106 37.6146 73.9724 37.6903C73.896 37.8038 73.8196 37.8416 73.7432 37.8416ZM74.1633 38.3714C74.0869 38.2957 74.0106 38.2579 73.896 38.22C74.1251 38.1822 74.2779 38.1065 74.4306 37.993C74.5452 37.8416 74.6216 37.6903 74.6216 37.5011C74.6216 37.3118 74.5834 37.1605 74.4688 37.0469C74.3543 36.9334 74.2397 36.8577 74.1251 36.8199C73.9724 36.7821 73.7814 36.7821 73.4377 36.7821H72.483V39.3931H73.0176V38.3336H73.1322C73.3232 38.3336 73.4377 38.3714 73.5523 38.4471C73.6669 38.5228 73.7814 38.712 73.896 38.9769L74.1251 39.3931H74.7743L74.4688 38.8633C74.3161 38.5985 74.2015 38.4471 74.1633 38.3714ZM68.2058 46.5452C67.8239 46.9615 67.3657 47.1885 66.7928 47.1885C66.1818 47.1885 65.6853 46.9615 65.3034 46.4695C64.9215 45.9776 64.7306 45.3343 64.7306 44.5774C64.7306 43.7071 64.9215 43.0259 65.3034 42.6097C65.6853 42.1556 66.1818 41.9285 66.7928 41.9285C67.4038 41.9285 67.8621 42.1556 68.244 42.5718C68.6259 42.9881 68.7786 43.6692 68.7786 44.5396C68.7786 45.4478 68.5877 46.1289 68.2058 46.5452ZM67.7857 39.3553C66.6782 39.3553 65.6853 39.8094 64.807 40.7554V39.5067H60.1861V41.815H61.5991V51.6917H59.8806V54H66.7928V51.6917H64.7688V48.4751C65.6471 49.3076 66.6401 49.7239 67.7094 49.7239C69.0078 49.7239 70.0771 49.232 70.879 48.2859C71.681 47.302 72.0629 46.0911 72.0629 44.6153C72.0629 43.2151 71.681 42.0042 70.9172 40.9446C70.1535 39.8851 69.0842 39.3553 67.7857 39.3553ZM56.2908 46.583C55.9089 47.0371 55.4506 47.2642 54.8396 47.2642C54.1904 47.2642 53.6939 46.9993 53.3502 46.5074C53.0065 46.0154 52.8538 45.3721 52.8538 44.5774C52.8538 42.6853 53.503 41.7393 54.8396 41.7393C55.4506 41.7393 55.9471 41.9664 56.2908 42.4583C56.6345 42.9502 56.8254 43.5936 56.8254 44.4639C56.8636 45.4099 56.6727 46.1289 56.2908 46.583ZM58.6203 40.6797C57.5892 39.7337 56.329 39.2796 54.8396 39.2796C53.3502 39.2796 52.09 39.7337 51.0971 40.6797C50.066 41.6258 49.5695 42.8746 49.5695 44.5018C49.5695 46.1289 50.066 47.4156 51.0971 48.3238C52.1282 49.2698 53.3884 49.7239 54.8396 49.7239C56.3672 49.7239 57.6274 49.2698 58.6203 48.3238C59.6133 47.3777 60.1479 46.1289 60.1479 44.5018C60.1479 42.8746 59.6514 41.5879 58.6203 40.6797ZM27.2289 19.0343C27.2289 18.6559 27.1907 18.2397 27.1907 17.8612C27.5344 15.4772 28.9092 14.0771 31.3151 13.5851C31.6588 13.5851 32.0025 13.5851 32.3844 13.5851C34.2175 13.85 35.4395 14.7582 36.1651 16.1584C36.8907 14.7582 38.1128 13.85 39.9458 13.5851C40.2895 13.5851 40.6332 13.5851 41.0151 13.5851C43.3829 14.0392 44.7577 15.4772 45.1396 17.8612C45.1396 18.2397 45.1014 18.6559 45.1014 19.0343C44.8722 20.6615 44.4522 21.4562 43.6502 22.2887C41.1679 24.7484 38.6856 27.1703 36.2033 29.63C33.721 27.1703 31.2387 24.7484 28.7564 22.2887C27.8781 21.4184 27.458 20.6615 27.2289 19.0343ZM56.7873 16.499C54.1904 11.0119 51.6317 5.48704 49.0349 0C44.7195 4.2761 40.4041 8.51437 36.0887 12.7905C31.7734 8.55221 27.458 4.2761 23.1808 0C20.5839 5.48704 18.0253 11.0119 15.4284 16.499C22.3025 23.3104 29.2147 30.1598 36.0887 36.9713C43.1155 30.0841 49.9896 23.2348 56.7873 16.499ZM3.78072 35.1549H0V36.8956H1.79488V47.7561H0V49.4968H5.30829V47.7561H3.78072V35.1549ZM12.9079 46.9236C12.2969 47.5669 11.5331 47.8697 10.6166 47.8697C9.73823 47.8697 8.97444 47.5669 8.32523 46.9236C7.7142 46.2803 7.40869 45.4856 7.40869 44.5018C7.40869 43.5557 7.7142 42.761 8.32523 42.1177C8.93626 41.4744 9.70004 41.1338 10.6166 41.1338C11.4949 41.1338 12.2587 41.4366 12.8697 42.0799C13.4808 42.7232 13.8245 43.5179 13.8245 44.5018C13.8245 45.4856 13.519 46.2803 12.9079 46.9236ZM14.3591 40.7176C13.328 39.7337 12.0678 39.2418 10.6166 39.2418C9.1272 39.2418 7.90515 39.7337 6.87405 40.7176C5.84294 41.7015 5.34648 42.9502 5.34648 44.5018C5.34648 46.0533 5.84294 47.302 6.87405 48.2859C7.90515 49.2698 9.1272 49.7617 10.6548 49.7617C12.106 49.7617 13.3662 49.2698 14.3973 48.2859C15.4284 47.302 15.9631 46.0533 15.9631 44.4639C15.8867 42.9502 15.3902 41.6636 14.3591 40.7176ZM74.9271 39.431C74.5452 39.8094 74.0869 39.9986 73.5141 39.9986C72.9413 39.9986 72.5212 39.8094 72.1011 39.431C71.7192 39.0526 71.5283 38.5985 71.5283 38.0308C71.5283 37.501 71.7192 37.047 72.1011 36.6307C72.483 36.2523 72.9413 36.0631 73.5141 36.0631C74.0488 36.0631 74.507 36.2523 74.9271 36.6307C75.309 37.0091 75.4999 37.4632 75.4999 38.0308C75.5381 38.5985 75.3472 39.0526 74.9271 39.431ZM75.2708 36.328C74.7743 35.836 74.2015 35.609 73.5141 35.609C72.8267 35.609 72.2539 35.836 71.7574 36.328C71.2609 36.8199 71.0318 37.3875 71.0318 38.0687C71.0318 38.7498 71.2609 39.3174 71.7574 39.8094C72.2539 40.3013 72.8267 40.5284 73.5141 40.5284C74.2015 40.5284 74.7743 40.3013 75.2708 39.8094C75.7673 39.3174 75.9964 38.7498 75.9964 38.0687C76.0346 37.3875 75.7673 36.7821 75.2708 36.328Z" fill="#CE2334"/>
</svg>
